<svg id="Layer_1" data-name="Layer 1" xmlns="http://www.w3.org/2000/svg" viewBox="0 0 436.73 311.75"><defs><style>.cls-1{fill:#aaa;opacity:0.25;}.cls-2{fill:#f94848;}.cls-3{fill:#7dd1ff;}.cls-4{fill:#fff;}</style></defs><title>logo</title><path class="cls-1" d="M510.1,132.25A118.87,118.87,0,0,1,629,251.12v137.1l-44.42-44.43A118.87,118.87,0,1,1,510.1,132.25Z" transform="translate(-192.24 -119.99)"/><path class="cls-1" d="M234.46,394.67a58.9,58.9,0,0,1-4.27-22.08V297.94a59.15,59.15,0,0,1,59.15-59.15h166.2a59.15,59.15,0,0,1,59.15,59.15v74.65a59.15,59.15,0,0,1-59.15,59.15H192.24V419.49Z" transform="translate(-192.24 -119.99)"/><path class="cls-2" d="M510.1,120A118.88,118.88,0,0,1,629,238.87V376l-44.42-44.42A118.87,118.87,0,1,1,510.1,120Z" transform="translate(-192.24 -119.99)"/><path class="cls-3" d="M234.46,382.41a58.9,58.9,0,0,1-4.27-22.08V285.69a59.16,59.16,0,0,1,59.15-59.16h166.2a59.16,59.16,0,0,1,59.15,59.16v74.64a59.16,59.16,0,0,1-59.15,59.16H192.24Z" transform="translate(-192.24 -119.99)"/><circle class="cls-4" cx="113.72" cy="203.01" r="16.34"/><circle class="cls-4" cx="157.74" cy="203.01" r="16.34"/><circle class="cls-4" cx="201.75" cy="203.01" r="16.34"/><circle class="cls-4" cx="245.77" cy="203.01" r="16.34"/></svg>